<svg width="64" height="64" viewBox="0 0 64 64" fill="none" xmlns="http://www.w3.org/2000/svg">
<path d="M29.0057 11.3636V23H26.5455V13.6989H26.4773L23.8125 15.3693V13.1875L26.6932 11.3636H29.0057ZM36.0213 23.1591C35.2183 23.1591 34.5024 23.0114 33.8736 22.7159C33.2486 22.4205 32.7524 22.0133 32.3849 21.4943C32.0175 20.9754 31.8262 20.3807 31.8111 19.7102H34.1974C34.224 20.161 34.4134 20.5265 34.7656 20.8068C35.1179 21.0871 35.5365 21.2273 36.0213 21.2273C36.4077 21.2273 36.7486 21.142 37.044 20.9716C37.3433 20.7973 37.5762 20.5568 37.7429 20.25C37.9134 19.9394 37.9986 19.5833 37.9986 19.1818C37.9986 18.7727 37.9115 18.4129 37.7372 18.1023C37.5668 17.7917 37.33 17.5492 37.027 17.375C36.724 17.2008 36.3774 17.1117 35.9872 17.108C35.6463 17.108 35.3149 17.178 34.9929 17.3182C34.6747 17.4583 34.4266 17.6496 34.2486 17.892L32.0611 17.5L32.6122 11.3636H39.7259V13.375H34.6406L34.3395 16.2898H34.4077C34.6122 16.0019 34.9209 15.7633 35.3338 15.5739C35.7467 15.3845 36.2088 15.2898 36.7202 15.2898C37.4209 15.2898 38.0459 15.4545 38.5952 15.7841C39.1444 16.1136 39.5781 16.5663 39.8963 17.142C40.2145 17.714 40.3717 18.3731 40.3679 19.1193C40.3717 19.9034 40.1899 20.6004 39.8224 21.2102C39.4588 21.8163 38.9493 22.2936 38.294 22.642C37.6425 22.9867 36.8849 23.1591 36.0213 23.1591Z" fill="black"/>
<path d="M16.9853 40.6525L7.43934 31.1066C6.85355 30.5208 6.85355 29.5711 7.43934 28.9853L16.9853 19.4393C17.5711 18.8536 18.5208 18.8536 19.1066 19.4393C19.6924 20.0251 19.6924 20.9749 19.1066 21.5607L12.1213 28.5459H44.5C51.2124 29.0566 56.5 35.1648 56.5 42.008C56.5 48.8513 51.2124 54.4595 44.5 54.9701V55.0459H10.0018C9.17239 55.0459 8.5 54.3736 8.5 53.5441V53.5441C8.5 52.7161 9.17017 52.0443 9.99817 52.0423L44.5 51.9587C49.5533 51.4569 53.5 47.1934 53.5 42.008C53.5 36.8227 49.5533 32.0477 44.5 31.5459H12.1213L19.1066 38.5312C19.6924 39.117 19.6924 40.0668 19.1066 40.6525C18.5208 41.2383 17.5711 41.2383 16.9853 40.6525Z" fill="black" stroke="black" stroke-width="2"/>
</svg>
