<svg width="64" height="64" viewBox="0 0 64 64" fill="none" xmlns="http://www.w3.org/2000/svg">
<path d="M29.0057 11.3636V23H26.5455V13.6989H26.4773L23.8125 15.3693V13.1875L26.6932 11.3636H29.0057ZM36.0213 23.1591C35.2183 23.1591 34.5024 23.0114 33.8736 22.7159C33.2486 22.4205 32.7524 22.0133 32.3849 21.4943C32.0175 20.9754 31.8262 20.3807 31.8111 19.7102H34.1974C34.224 20.161 34.4134 20.5265 34.7656 20.8068C35.1179 21.0871 35.5365 21.2273 36.0213 21.2273C36.4077 21.2273 36.7486 21.142 37.044 20.9716C37.3433 20.7973 37.5762 20.5568 37.7429 20.25C37.9134 19.9394 37.9986 19.5833 37.9986 19.1818C37.9986 18.7727 37.9115 18.4129 37.7372 18.1023C37.5668 17.7917 37.33 17.5492 37.027 17.375C36.724 17.2008 36.3774 17.1117 35.9872 17.108C35.6463 17.108 35.3149 17.178 34.9929 17.3182C34.6747 17.4583 34.4266 17.6496 34.2486 17.892L32.0611 17.5L32.6122 11.3636H39.7259V13.375H34.6406L34.3395 16.2898H34.4077C34.6122 16.0019 34.9209 15.7633 35.3338 15.5739C35.7467 15.3845 36.2088 15.2898 36.7202 15.2898C37.4209 15.2898 38.0459 15.4545 38.5952 15.7841C39.1444 16.1136 39.5781 16.5663 39.8963 17.142C40.2145 17.714 40.3717 18.3731 40.3679 19.1193C40.3717 19.9034 40.1899 20.6004 39.8224 21.2102C39.4588 21.8163 38.9493 22.2936 38.294 22.642C37.6425 22.9867 36.8849 23.1591 36.0213 23.1591Z" fill="black"/>
<path d="M46.5147 44.6525L56.0607 35.1066C56.6464 34.5208 56.6464 33.5711 56.0607 32.9853L46.5147 23.4393C45.9289 22.8536 44.9792 22.8536 44.3934 23.4393C43.8076 24.0251 43.8076 24.9749 44.3934 25.5607L51.3787 32.5459H19C12.2876 33.0566 7 39.1648 7 46.008C7 52.8513 12.2876 58.4595 19 58.9701V59.0459H53.4982C54.3276 59.0459 55 58.3736 55 57.5441V57.5441C55 56.7161 54.3298 56.0443 53.5018 56.0423L19 55.9587C13.9467 55.4569 10 51.1934 10 46.008C10 40.8227 13.9467 36.0477 19 35.5459H51.3787L44.3934 42.5312C43.8076 43.117 43.8076 44.0668 44.3934 44.6525C44.9792 45.2383 45.9289 45.2383 46.5147 44.6525Z" fill="black" stroke="black" stroke-width="2"/>
</svg>
